# MagicaVoxel @ Ephtracy

# group
o 

# material
mtllib stoneplane.mtl
usemtl palette

# normals
vn -1 0 0
vn 1 0 0
vn 0 0 1
vn 0 0 -1
vn 0 -1 0
vn 0 1 0

# texcoords
vt 0.974609 0.5
vt 0.982422 0.5
vt 0.986328 0.5
vt 0.990234 0.5

# verts
v 1.3 2 -2.4
v 1.3 2 -4
v 1.3 2.1 -3.5
v 1.3 2.1 -3.6
v 1.3 2.1 -3.7
v 1.3 2.1 -3.8
v 1.3 2.2 -2.4
v 1.3 2.2 -3.5
v 1.3 2.2 -3.6
v 1.3 2.2 -3.7
v 1.3 2.2 -3.8
v 1.3 2.2 -4
v 1.5 2.1 -2.9
v 1.5 2.1 -3
v 1.5 2.1 -3.8
v 1.5 2.1 -3.9
v 1.5 2.2 -2.9
v 1.5 2.2 -3
v 1.5 2.2 -3.8
v 1.5 2.2 -3.9
v 1.6 2.1 -3.4
v 1.6 2.1 -3.5
v 1.6 2.2 -3.4
v 1.6 2.2 -3.5
v 1.9 2.1 -2.5
v 1.9 2.1 -2.6
v 1.9 2.1 -2.9
v 1.9 2.1 -3
v 1.9 2.1 -3.5
v 1.9 2.1 -3.6
v 1.9 2.1 -3.9
v 1.9 2.1 -4
v 1.9 2.2 -2.5
v 1.9 2.2 -2.6
v 1.9 2.2 -2.9
v 1.9 2.2 -3
v 1.9 2.2 -3.5
v 1.9 2.2 -3.6
v 1.9 2.2 -3.9
v 1.9 2.2 -4
v 2 2.1 -3.2
v 2 2.1 -3.4
v 2 2.2 -3.2
v 2 2.2 -3.4
v 2.3 2.1 -2.7
v 2.3 2.1 -2.8
v 2.3 2.1 -3.1
v 2.3 2.1 -3.2
v 2.3 2.2 -2.7
v 2.3 2.2 -2.8
v 2.3 2.2 -3.1
v 2.3 2.2 -3.2
v 2.5 2.1 -3.4
v 2.5 2.1 -3.6
v 2.5 2.2 -3.4
v 2.5 2.2 -3.6
v 2.7 2.1 -2.4
v 2.7 2.1 -2.5
v 2.7 2.1 -3.8
v 2.7 2.1 -3.9
v 2.7 2.2 -2.4
v 2.7 2.2 -2.5
v 2.7 2.2 -3.8
v 2.7 2.2 -3.9
v 1.4 2.1 -2.9
v 1.4 2.1 -3
v 1.4 2.1 -3.8
v 1.4 2.1 -3.9
v 1.4 2.2 -2.9
v 1.4 2.2 -3
v 1.4 2.2 -3.8
v 1.4 2.2 -3.9
v 1.5 2.1 -3.4
v 1.5 2.1 -3.5
v 1.5 2.2 -3.4
v 1.5 2.2 -3.5
v 1.7 2.1 -2.5
v 1.7 2.1 -2.6
v 1.7 2.2 -2.5
v 1.7 2.2 -2.6
v 1.8 2.1 -2.9
v 1.8 2.1 -3
v 1.8 2.1 -3.5
v 1.8 2.1 -3.6
v 1.8 2.1 -3.9
v 1.8 2.1 -4
v 1.8 2.2 -2.9
v 1.8 2.2 -3
v 1.8 2.2 -3.5
v 1.8 2.2 -3.6
v 1.8 2.2 -3.9
v 1.8 2.2 -4
v 1.9 2.1 -3.2
v 1.9 2.1 -3.3
v 1.9 2.1 -3.4
v 1.9 2.2 -3.2
v 1.9 2.2 -3.3
v 1.9 2.2 -3.4
v 2.2 2.1 -2.7
v 2.2 2.1 -2.8
v 2.2 2.1 -3.1
v 2.2 2.1 -3.2
v 2.2 2.2 -2.7
v 2.2 2.2 -2.8
v 2.2 2.2 -3.1
v 2.2 2.2 -3.2
v 2.4 2.1 -3.4
v 2.4 2.1 -3.5
v 2.4 2.1 -3.6
v 2.4 2.2 -3.4
v 2.4 2.2 -3.5
v 2.4 2.2 -3.6
v 2.6 2.1 -2.4
v 2.6 2.1 -2.5
v 2.6 2.1 -3.8
v 2.6 2.1 -3.9
v 2.6 2.2 -2.4
v 2.6 2.2 -2.5
v 2.6 2.2 -3.8
v 2.6 2.2 -3.9
v 2.7 2.1 -3
v 2.7 2.1 -3.1
v 2.7 2.2 -3
v 2.7 2.2 -3.1
v 2.8 2 -2.4
v 2.8 2 -3
v 2.8 2 -3.1
v 2.8 2 -4
v 2.8 2.1 -2.5
v 2.8 2.1 -2.6
v 2.8 2.1 -2.7
v 2.8 2.1 -2.8
v 2.8 2.1 -3
v 2.8 2.1 -3.1
v 2.8 2.1 -3.2
v 2.8 2.1 -3.9
v 2.8 2.1 -4
v 2.8 2.2 -2.4
v 2.8 2.2 -2.5
v 2.8 2.2 -2.6
v 2.8 2.2 -2.7
v 2.8 2.2 -2.8
v 2.8 2.2 -3
v 2.8 2.2 -3.1
v 2.8 2.2 -3.2
v 2.8 2.2 -3.9
v 2.8 2.2 -4
v 1.3 2 -2.4
v 1.3 2.2 -2.4
v 1.9 2.1 -2.4
v 1.9 2.2 -2.4
v 2 2.1 -2.4
v 2 2.2 -2.4
v 2.4 2.1 -2.4
v 2.4 2.2 -2.4
v 2.5 2.1 -2.4
v 2.5 2.2 -2.4
v 2.6 2 -2.4
v 2.6 2.1 -2.4
v 2.6 2.2 -2.4
v 2.7 2 -2.4
v 2.7 2.1 -2.4
v 2.7 2.2 -2.4
v 2.8 2 -2.4
v 2.8 2.2 -2.4
v 2.6 2.1 -2.5
v 2.6 2.2 -2.5
v 2.7 2.1 -2.5
v 2.7 2.2 -2.5
v 1.7 2.1 -2.6
v 1.7 2.2 -2.6
v 1.9 2.1 -2.6
v 1.9 2.2 -2.6
v 2.2 2.1 -2.8
v 2.2 2.2 -2.8
v 2.3 2.1 -2.8
v 2.3 2.2 -2.8
v 1.4 2.1 -3
v 1.4 2.2 -3
v 1.5 2.1 -3
v 1.5 2.2 -3
v 1.8 2.1 -3
v 1.8 2.2 -3
v 1.9 2.1 -3
v 1.9 2.2 -3
v 2.7 2.1 -3.1
v 2.7 2.2 -3.1
v 2.8 2.1 -3.1
v 2.8 2.2 -3.1
v 2.2 2.1 -3.2
v 2.2 2.2 -3.2
v 2.3 2.1 -3.2
v 2.3 2.2 -3.2
v 1.9 2.1 -3.4
v 1.9 2.2 -3.4
v 2 2.1 -3.4
v 2 2.2 -3.4
v 1.5 2.1 -3.5
v 1.5 2.2 -3.5
v 1.6 2.1 -3.5
v 1.6 2.2 -3.5
v 1.8 2.1 -3.6
v 1.8 2.2 -3.6
v 1.9 2.1 -3.6
v 1.9 2.2 -3.6
v 2.4 2.1 -3.6
v 2.4 2.2 -3.6
v 2.5 2.1 -3.6
v 2.5 2.2 -3.6
v 1.4 2.1 -3.9
v 1.4 2.2 -3.9
v 1.5 2.1 -3.9
v 1.5 2.2 -3.9
v 2.6 2.1 -3.9
v 2.6 2.2 -3.9
v 2.7 2.1 -3.9
v 2.7 2.2 -3.9
v 1.7 2.1 -2.5
v 1.7 2.2 -2.5
v 1.9 2.1 -2.5
v 1.9 2.2 -2.5
v 2.2 2.1 -2.7
v 2.2 2.2 -2.7
v 2.3 2.1 -2.7
v 2.3 2.2 -2.7
v 1.4 2.1 -2.9
v 1.4 2.2 -2.9
v 1.5 2.1 -2.9
v 1.5 2.2 -2.9
v 1.8 2.1 -2.9
v 1.8 2.2 -2.9
v 1.9 2.1 -2.9
v 1.9 2.2 -2.9
v 2.7 2.1 -3
v 2.7 2.2 -3
v 2.8 2.1 -3
v 2.8 2.2 -3
v 2.2 2.1 -3.1
v 2.2 2.2 -3.1
v 2.3 2.1 -3.1
v 2.3 2.2 -3.1
v 1.9 2.1 -3.2
v 1.9 2.2 -3.2
v 2 2.1 -3.2
v 2 2.2 -3.2
v 1.5 2.1 -3.4
v 1.5 2.2 -3.4
v 1.6 2.1 -3.4
v 1.6 2.2 -3.4
v 2.4 2.1 -3.4
v 2.4 2.2 -3.4
v 2.5 2.1 -3.4
v 2.5 2.2 -3.4
v 1.8 2.1 -3.5
v 1.8 2.2 -3.5
v 1.9 2.1 -3.5
v 1.9 2.2 -3.5
v 1.4 2.1 -3.8
v 1.4 2.2 -3.8
v 1.5 2.1 -3.8
v 1.5 2.2 -3.8
v 2.6 2.1 -3.8
v 2.6 2.2 -3.8
v 2.7 2.1 -3.8
v 2.7 2.2 -3.8
v 1.8 2.1 -3.9
v 1.8 2.2 -3.9
v 1.9 2.1 -3.9
v 1.9 2.2 -3.9
v 1.3 2 -4
v 1.3 2.2 -4
v 1.6 2.1 -4
v 1.6 2.2 -4
v 1.7 2.1 -4
v 1.7 2.2 -4
v 1.8 2 -4
v 1.8 2.1 -4
v 1.8 2.2 -4
v 1.9 2 -4
v 1.9 2.1 -4
v 1.9 2.2 -4
v 2.7 2.1 -4
v 2.7 2.2 -4
v 2.8 2 -4
v 2.8 2.1 -4
v 2.8 2.2 -4
v 1.3 2 -2.4
v 2.6 2 -2.4
v 2.7 2 -2.4
v 2.8 2 -2.4
v 1.7 2 -2.5
v 1.9 2 -2.5
v 2.6 2 -2.5
v 2.7 2 -2.5
v 1.7 2 -2.6
v 1.9 2 -2.6
v 2.2 2 -2.7
v 2.3 2 -2.7
v 2.2 2 -2.8
v 2.3 2 -2.8
v 1.4 2 -2.9
v 1.5 2 -2.9
v 1.8 2 -2.9
v 1.9 2 -2.9
v 1.4 2 -3
v 1.5 2 -3
v 1.8 2 -3
v 1.9 2 -3
v 2.7 2 -3
v 2.8 2 -3
v 2.7 2 -3.1
v 2.8 2 -3.1
v 1.9 2 -3.2
v 2 2 -3.2
v 1.5 2 -3.4
v 1.6 2 -3.4
v 1.9 2 -3.4
v 2 2 -3.4
v 2.4 2 -3.4
v 2.5 2 -3.4
v 1.5 2 -3.5
v 1.6 2 -3.5
v 1.8 2 -3.5
v 1.9 2 -3.5
v 1.8 2 -3.6
v 1.9 2 -3.6
v 2.4 2 -3.6
v 2.5 2 -3.6
v 1.4 2 -3.8
v 1.5 2 -3.8
v 2.6 2 -3.8
v 2.7 2 -3.8
v 1.4 2 -3.9
v 1.5 2 -3.9
v 1.8 2 -3.9
v 1.9 2 -3.9
v 2.6 2 -3.9
v 2.7 2 -3.9
v 1.3 2 -4
v 1.8 2 -4
v 1.9 2 -4
v 2.8 2 -4
v 2.6 2.1 -2.4
v 2.7 2.1 -2.4
v 1.7 2.1 -2.5
v 1.9 2.1 -2.5
v 2.6 2.1 -2.5
v 2.7 2.1 -2.5
v 1.7 2.1 -2.6
v 1.9 2.1 -2.6
v 2.2 2.1 -2.7
v 2.3 2.1 -2.7
v 2.2 2.1 -2.8
v 2.3 2.1 -2.8
v 1.4 2.1 -2.9
v 1.5 2.1 -2.9
v 1.8 2.1 -2.9
v 1.9 2.1 -2.9
v 1.4 2.1 -3
v 1.5 2.1 -3
v 1.8 2.1 -3
v 1.9 2.1 -3
v 2.7 2.1 -3
v 2.8 2.1 -3
v 2.2 2.1 -3.1
v 2.3 2.1 -3.1
v 2.7 2.1 -3.1
v 2.8 2.1 -3.1
v 1.9 2.1 -3.2
v 2 2.1 -3.2
v 2.2 2.1 -3.2
v 2.3 2.1 -3.2
v 1.9 2.1 -3.3
v 1.5 2.1 -3.4
v 1.6 2.1 -3.4
v 1.9 2.1 -3.4
v 2 2.1 -3.4
v 2.4 2.1 -3.4
v 2.5 2.1 -3.4
v 1.5 2.1 -3.5
v 1.6 2.1 -3.5
v 1.8 2.1 -3.5
v 1.9 2.1 -3.5
v 2.4 2.1 -3.5
v 1.8 2.1 -3.6
v 1.9 2.1 -3.6
v 2.4 2.1 -3.6
v 2.5 2.1 -3.6
v 1.4 2.1 -3.8
v 1.5 2.1 -3.8
v 2.6 2.1 -3.8
v 2.7 2.1 -3.8
v 1.4 2.1 -3.9
v 1.5 2.1 -3.9
v 1.8 2.1 -3.9
v 1.9 2.1 -3.9
v 2.6 2.1 -3.9
v 2.7 2.1 -3.9
v 1.8 2.1 -4
v 1.9 2.1 -4
v 1.3 2.2 -2.4
v 1.9 2.2 -2.4
v 2 2.2 -2.4
v 2.4 2.2 -2.4
v 2.5 2.2 -2.4
v 2.6 2.2 -2.4
v 2.7 2.2 -2.4
v 2.8 2.2 -2.4
v 1.5 2.2 -2.5
v 1.6 2.2 -2.5
v 1.7 2.2 -2.5
v 1.9 2.2 -2.5
v 2 2.2 -2.5
v 2.2 2.2 -2.5
v 2.3 2.2 -2.5
v 2.4 2.2 -2.5
v 2.5 2.2 -2.5
v 2.6 2.2 -2.5
v 2.7 2.2 -2.5
v 2.8 2.2 -2.5
v 1.5 2.2 -2.6
v 1.6 2.2 -2.6
v 1.7 2.2 -2.6
v 1.9 2.2 -2.6
v 2.2 2.2 -2.6
v 2.3 2.2 -2.6
v 2.5 2.2 -2.6
v 2.6 2.2 -2.6
v 2.7 2.2 -2.6
v 2.8 2.2 -2.6
v 1.7 2.2 -2.7
v 1.8 2.2 -2.7
v 2 2.2 -2.7
v 2.1 2.2 -2.7
v 2.2 2.2 -2.7
v 2.3 2.2 -2.7
v 2.5 2.2 -2.7
v 2.6 2.2 -2.7
v 2.7 2.2 -2.7
v 2.8 2.2 -2.7
v 1.7 2.2 -2.8
v 1.8 2.2 -2.8
v 2 2.2 -2.8
v 2.1 2.2 -2.8
v 2.2 2.2 -2.8
v 2.3 2.2 -2.8
v 2.7 2.2 -2.8
v 2.8 2.2 -2.8
v 1.4 2.2 -2.9
v 1.5 2.2 -2.9
v 1.8 2.2 -2.9
v 1.9 2.2 -2.9
v 2.2 2.2 -2.9
v 2.3 2.2 -2.9
v 2.5 2.2 -2.9
v 2.6 2.2 -2.9
v 1.4 2.2 -3
v 1.5 2.2 -3
v 1.8 2.2 -3
v 1.9 2.2 -3
v 2.5 2.2 -3
v 2.6 2.2 -3
v 2.7 2.2 -3
v 2.8 2.2 -3
v 1.5 2.2 -3.1
v 1.7 2.2 -3.1
v 1.8 2.2 -3.1
v 1.9 2.2 -3.1
v 2.2 2.2 -3.1
v 2.3 2.2 -3.1
v 2.4 2.2 -3.1
v 2.5 2.2 -3.1
v 2.6 2.2 -3.1
v 2.7 2.2 -3.1
v 2.8 2.2 -3.1
v 1.5 2.2 -3.2
v 1.7 2.2 -3.2
v 1.8 2.2 -3.2
v 1.9 2.2 -3.2
v 2 2.2 -3.2
v 2.2 2.2 -3.2
v 2.3 2.2 -3.2
v 2.4 2.2 -3.2
v 2.5 2.2 -3.2
v 2.6 2.2 -3.2
v 2.7 2.2 -3.2
v 2.8 2.2 -3.2
v 1.4 2.2 -3.3
v 1.5 2.2 -3.3
v 1.7 2.2 -3.3
v 1.8 2.2 -3.3
v 1.9 2.2 -3.3
v 2.1 2.2 -3.3
v 2.2 2.2 -3.3
v 2.3 2.2 -3.3
v 2.4 2.2 -3.3
v 2.6 2.2 -3.3
v 2.7 2.2 -3.3
v 1.4 2.2 -3.4
v 1.5 2.2 -3.4
v 1.6 2.2 -3.4
v 1.8 2.2 -3.4
v 1.9 2.2 -3.4
v 2 2.2 -3.4
v 2.1 2.2 -3.4
v 2.2 2.2 -3.4
v 2.3 2.2 -3.4
v 2.4 2.2 -3.4
v 2.5 2.2 -3.4
v 2.6 2.2 -3.4
v 2.7 2.2 -3.4
v 1.3 2.2 -3.5
v 1.4 2.2 -3.5
v 1.5 2.2 -3.5
v 1.6 2.2 -3.5
v 1.8 2.2 -3.5
v 1.9 2.2 -3.5
v 2.3 2.2 -3.5
v 2.4 2.2 -3.5
v 2.6 2.2 -3.5
v 2.7 2.2 -3.5
v 1.3 2.2 -3.6
v 1.4 2.2 -3.6
v 1.6 2.2 -3.6
v 1.7 2.2 -3.6
v 1.8 2.2 -3.6
v 1.9 2.2 -3.6
v 2.1 2.2 -3.6
v 2.2 2.2 -3.6
v 2.4 2.2 -3.6
v 2.5 2.2 -3.6
v 1.3 2.2 -3.7
v 1.4 2.2 -3.7
v 1.6 2.2 -3.7
v 1.7 2.2 -3.7
v 1.8 2.2 -3.7
v 1.9 2.2 -3.7
v 2.1 2.2 -3.7
v 2.2 2.2 -3.7
v 2.3 2.2 -3.7
v 2.4 2.2 -3.7
v 2.5 2.2 -3.7
v 2.6 2.2 -3.7
v 2.7 2.2 -3.7
v 1.3 2.2 -3.8
v 1.4 2.2 -3.8
v 1.5 2.2 -3.8
v 1.6 2.2 -3.8
v 1.7 2.2 -3.8
v 2.1 2.2 -3.8
v 2.2 2.2 -3.8
v 2.3 2.2 -3.8
v 2.4 2.2 -3.8
v 2.5 2.2 -3.8
v 2.6 2.2 -3.8
v 2.7 2.2 -3.8
v 1.4 2.2 -3.9
v 1.5 2.2 -3.9
v 1.6 2.2 -3.9
v 1.7 2.2 -3.9
v 1.8 2.2 -3.9
v 1.9 2.2 -3.9
v 2.1 2.2 -3.9
v 2.2 2.2 -3.9
v 2.6 2.2 -3.9
v 2.7 2.2 -3.9
v 2.8 2.2 -3.9
v 1.3 2.2 -4
v 1.6 2.2 -4
v 1.7 2.2 -4
v 1.8 2.2 -4
v 1.9 2.2 -4
v 2.7 2.2 -4
v 2.8 2.2 -4

# faces
f 3/3/1 2/3/1 1/3/1
f 4/3/1 2/3/1 3/3/1
f 5/3/1 2/3/1 4/3/1
f 6/3/1 2/3/1 5/3/1
f 7/3/1 3/3/1 1/3/1
f 8/2/1 4/2/1 3/2/1
f 8/3/1 3/3/1 7/3/1
f 9/3/1 5/3/1 4/3/1
f 9/2/1 4/2/1 8/2/1
f 10/2/1 6/2/1 5/2/1
f 10/3/1 5/3/1 9/3/1
f 11/3/1 2/3/1 6/3/1
f 11/2/1 6/2/1 10/2/1
f 12/3/1 2/3/1 11/3/1
f 17/3/1 14/3/1 13/3/1
f 18/3/1 14/3/1 17/3/1
f 19/3/1 16/3/1 15/3/1
f 20/3/1 16/3/1 19/3/1
f 23/3/1 22/3/1 21/3/1
f 24/3/1 22/3/1 23/3/1
f 33/3/1 26/3/1 25/3/1
f 34/3/1 26/3/1 33/3/1
f 35/3/1 28/3/1 27/3/1
f 36/3/1 28/3/1 35/3/1
f 37/3/1 30/3/1 29/3/1
f 38/3/1 30/3/1 37/3/1
f 39/3/1 32/3/1 31/3/1
f 40/3/1 32/3/1 39/3/1
f 43/3/1 42/3/1 41/3/1
f 44/3/1 42/3/1 43/3/1
f 49/3/1 46/3/1 45/3/1
f 50/3/1 46/3/1 49/3/1
f 51/4/1 48/4/1 47/4/1
f 52/4/1 48/4/1 51/4/1
f 55/3/1 54/3/1 53/3/1
f 56/3/1 54/3/1 55/3/1
f 61/3/1 58/3/1 57/3/1
f 62/3/1 58/3/1 61/3/1
f 63/3/1 60/3/1 59/3/1
f 64/3/1 60/3/1 63/3/1
f 65/3/2 66/3/2 69/3/2
f 69/3/2 66/3/2 70/3/2
f 67/3/2 68/3/2 71/3/2
f 71/3/2 68/3/2 72/3/2
f 73/3/2 74/3/2 75/3/2
f 75/3/2 74/3/2 76/3/2
f 77/3/2 78/3/2 79/3/2
f 79/3/2 78/3/2 80/3/2
f 81/3/2 82/3/2 87/3/2
f 87/3/2 82/3/2 88/3/2
f 83/3/2 84/3/2 89/3/2
f 89/3/2 84/3/2 90/3/2
f 85/3/2 86/3/2 91/3/2
f 91/3/2 86/3/2 92/3/2
f 93/3/2 94/3/2 96/3/2
f 94/4/2 95/4/2 97/4/2
f 96/3/2 94/3/2 97/3/2
f 97/4/2 95/4/2 98/4/2
f 99/3/2 100/3/2 103/3/2
f 103/3/2 100/3/2 104/3/2
f 101/3/2 102/3/2 105/3/2
f 105/3/2 102/3/2 106/3/2
f 107/2/2 108/2/2 110/2/2
f 108/3/2 109/3/2 111/3/2
f 110/2/2 108/2/2 111/2/2
f 111/3/2 109/3/2 112/3/2
f 113/3/2 114/3/2 117/3/2
f 117/3/2 114/3/2 118/3/2
f 115/3/2 116/3/2 119/3/2
f 119/3/2 116/3/2 120/3/2
f 121/3/2 122/3/2 123/3/2
f 123/3/2 122/3/2 124/3/2
f 125/3/2 126/3/2 129/3/2
f 129/3/2 126/3/2 130/3/2
f 130/3/2 126/3/2 131/3/2
f 131/3/2 126/3/2 132/3/2
f 126/4/2 127/4/2 133/4/2
f 132/3/2 126/3/2 133/3/2
f 127/3/2 128/3/2 134/3/2
f 133/4/2 127/4/2 134/4/2
f 134/3/2 128/3/2 135/3/2
f 135/3/2 128/3/2 136/3/2
f 136/3/2 128/3/2 137/3/2
f 125/3/2 129/3/2 138/3/2
f 129/1/2 130/1/2 139/1/2
f 138/3/2 129/3/2 139/3/2
f 130/3/2 131/3/2 140/3/2
f 139/1/2 130/1/2 140/1/2
f 131/2/2 132/2/2 141/2/2
f 140/3/2 131/3/2 141/3/2
f 132/3/2 133/3/2 142/3/2
f 141/2/2 132/2/2 142/2/2
f 142/3/2 133/3/2 143/3/2
f 134/4/2 135/4/2 144/4/2
f 135/3/2 136/3/2 145/3/2
f 144/4/2 135/4/2 145/4/2
f 136/1/2 137/1/2 146/1/2
f 145/3/2 136/3/2 146/3/2
f 146/1/2 137/1/2 147/1/2
f 150/3/3 149/3/3 148/3/3
f 151/3/3 149/3/3 150/3/3
f 152/3/3 150/3/3 148/3/3
f 152/4/3 151/4/3 150/4/3
f 153/4/3 151/4/3 152/4/3
f 154/3/3 152/3/3 148/3/3
f 154/3/3 153/3/3 152/3/3
f 155/3/3 153/3/3 154/3/3
f 156/3/3 154/3/3 148/3/3
f 156/2/3 155/2/3 154/2/3
f 157/2/3 155/2/3 156/2/3
f 158/3/3 156/3/3 148/3/3
f 158/3/3 157/3/3 156/3/3
f 159/3/3 157/3/3 158/3/3
f 160/3/3 157/3/3 159/3/3
f 161/4/3 159/4/3 158/4/3
f 162/4/3 159/4/3 161/4/3
f 164/3/3 162/3/3 161/3/3
f 164/3/3 163/3/3 162/3/3
f 165/3/3 163/3/3 164/3/3
f 168/3/3 167/3/3 166/3/3
f 169/3/3 167/3/3 168/3/3
f 172/3/3 171/3/3 170/3/3
f 173/3/3 171/3/3 172/3/3
f 176/4/3 175/4/3 174/4/3
f 177/4/3 175/4/3 176/4/3
f 180/3/3 179/3/3 178/3/3
f 181/3/3 179/3/3 180/3/3
f 184/4/3 183/4/3 182/4/3
f 185/4/3 183/4/3 184/4/3
f 188/4/3 187/4/3 186/4/3
f 189/4/3 187/4/3 188/4/3
f 192/3/3 191/3/3 190/3/3
f 193/3/3 191/3/3 192/3/3
f 196/3/3 195/3/3 194/3/3
f 197/3/3 195/3/3 196/3/3
f 200/3/3 199/3/3 198/3/3
f 201/3/3 199/3/3 200/3/3
f 204/4/3 203/4/3 202/4/3
f 205/4/3 203/4/3 204/4/3
f 208/3/3 207/3/3 206/3/3
f 209/3/3 207/3/3 208/3/3
f 212/3/3 211/3/3 210/3/3
f 213/3/3 211/3/3 212/3/3
f 216/3/3 215/3/3 214/3/3
f 217/3/3 215/3/3 216/3/3
f 218/3/4 219/3/4 220/3/4
f 220/3/4 219/3/4 221/3/4
f 222/3/4 223/3/4 224/3/4
f 224/3/4 223/3/4 225/3/4
f 226/3/4 227/3/4 228/3/4
f 228/3/4 227/3/4 229/3/4
f 230/3/4 231/3/4 232/3/4
f 232/3/4 231/3/4 233/3/4
f 234/3/4 235/3/4 236/3/4
f 236/3/4 235/3/4 237/3/4
f 238/3/4 239/3/4 240/3/4
f 240/3/4 239/3/4 241/3/4
f 242/3/4 243/3/4 244/3/4
f 244/3/4 243/3/4 245/3/4
f 246/3/4 247/3/4 248/3/4
f 248/3/4 247/3/4 249/3/4
f 250/3/4 251/3/4 252/3/4
f 252/3/4 251/3/4 253/3/4
f 254/3/4 255/3/4 256/3/4
f 256/3/4 255/3/4 257/3/4
f 258/3/4 259/3/4 260/3/4
f 260/3/4 259/3/4 261/3/4
f 262/4/4 263/4/4 264/4/4
f 264/4/4 263/4/4 265/4/4
f 266/3/4 267/3/4 268/3/4
f 268/3/4 267/3/4 269/3/4
f 270/3/4 271/3/4 272/3/4
f 272/3/4 271/3/4 273/3/4
f 270/3/4 272/3/4 274/3/4
f 272/2/4 273/2/4 274/2/4
f 274/2/4 273/2/4 275/2/4
f 270/3/4 274/3/4 276/3/4
f 274/3/4 275/3/4 276/3/4
f 276/3/4 275/3/4 277/3/4
f 277/3/4 275/3/4 278/3/4
f 276/4/4 277/4/4 279/4/4
f 279/4/4 277/4/4 280/4/4
f 279/3/4 280/3/4 282/3/4
f 280/3/4 281/3/4 282/3/4
f 282/3/4 281/3/4 283/3/4
f 279/3/4 282/3/4 284/3/4
f 282/1/4 283/1/4 285/1/4
f 284/3/4 282/3/4 285/3/4
f 285/1/4 283/1/4 286/1/4
f 291/3/5 288/3/5 287/3/5
f 292/3/5 288/3/5 291/3/5
f 293/4/5 289/4/5 288/4/5
f 293/3/5 288/3/5 292/3/5
f 294/3/5 290/3/5 289/3/5
f 294/4/5 289/4/5 293/4/5
f 295/4/5 292/4/5 291/4/5
f 295/3/5 291/3/5 287/3/5
f 296/3/5 293/3/5 292/3/5
f 296/4/5 292/4/5 295/4/5
f 296/3/5 294/3/5 293/3/5
f 297/3/5 296/3/5 295/3/5
f 297/3/5 294/3/5 296/3/5
f 298/3/5 294/3/5 297/3/5
f 299/3/5 297/3/5 295/3/5
f 299/4/5 298/4/5 297/4/5
f 300/3/5 294/3/5 298/3/5
f 300/4/5 298/4/5 299/4/5
f 301/3/5 295/3/5 287/3/5
f 301/3/5 299/3/5 295/3/5
f 301/3/5 300/3/5 299/3/5
f 302/3/5 300/3/5 301/3/5
f 303/3/5 300/3/5 302/3/5
f 304/3/5 300/3/5 303/3/5
f 305/3/5 301/3/5 287/3/5
f 305/4/5 302/4/5 301/4/5
f 306/3/5 303/3/5 302/3/5
f 306/4/5 302/4/5 305/4/5
f 307/4/5 304/4/5 303/4/5
f 307/3/5 303/3/5 306/3/5
f 308/3/5 300/3/5 304/3/5
f 308/4/5 304/4/5 307/4/5
f 309/3/5 294/3/5 300/3/5
f 309/3/5 300/3/5 308/3/5
f 309/3/5 290/3/5 294/3/5
f 310/3/5 290/3/5 309/3/5
f 311/3/5 308/3/5 307/3/5
f 311/3/5 307/3/5 306/3/5
f 311/4/5 310/4/5 309/4/5
f 311/3/5 309/3/5 308/3/5
f 311/3/5 306/3/5 305/3/5
f 312/4/5 310/4/5 311/4/5
f 313/3/5 311/3/5 305/3/5
f 313/3/5 312/3/5 311/3/5
f 314/3/5 312/3/5 313/3/5
f 315/3/5 313/3/5 305/3/5
f 316/3/5 313/3/5 315/3/5
f 317/4/5 314/4/5 313/4/5
f 317/3/5 313/3/5 316/3/5
f 318/3/5 312/3/5 314/3/5
f 318/4/5 314/4/5 317/4/5
f 319/3/5 312/3/5 318/3/5
f 320/3/5 312/3/5 319/3/5
f 321/4/5 316/4/5 315/4/5
f 321/3/5 315/3/5 305/3/5
f 322/3/5 317/3/5 316/3/5
f 322/4/5 316/4/5 321/4/5
f 322/3/5 318/3/5 317/3/5
f 322/3/5 319/3/5 318/3/5
f 323/3/5 319/3/5 322/3/5
f 324/3/5 319/3/5 323/3/5
f 325/3/5 322/3/5 321/3/5
f 325/3/5 323/3/5 322/3/5
f 325/4/5 324/4/5 323/4/5
f 326/3/5 319/3/5 324/3/5
f 326/4/5 324/4/5 325/4/5
f 327/4/5 320/4/5 319/4/5
f 327/3/5 319/3/5 326/3/5
f 328/3/5 312/3/5 320/3/5
f 328/4/5 320/4/5 327/4/5
f 329/3/5 305/3/5 287/3/5
f 329/3/5 321/3/5 305/3/5
f 329/3/5 328/3/5 327/3/5
f 329/3/5 325/3/5 321/3/5
f 329/3/5 326/3/5 325/3/5
f 329/3/5 327/3/5 326/3/5
f 330/3/5 328/3/5 329/3/5
f 331/3/5 312/3/5 328/3/5
f 331/3/5 328/3/5 330/3/5
f 332/3/5 312/3/5 331/3/5
f 333/4/5 330/4/5 329/4/5
f 333/3/5 329/3/5 287/3/5
f 334/3/5 331/3/5 330/3/5
f 334/4/5 330/4/5 333/4/5
f 335/3/5 331/3/5 334/3/5
f 336/3/5 331/3/5 335/3/5
f 337/4/5 332/4/5 331/4/5
f 337/3/5 331/3/5 336/3/5
f 338/3/5 312/3/5 332/3/5
f 338/4/5 332/4/5 337/4/5
f 339/3/5 333/3/5 287/3/5
f 339/3/5 334/3/5 333/3/5
f 339/3/5 335/3/5 334/3/5
f 340/4/5 336/4/5 335/4/5
f 340/3/5 335/3/5 339/3/5
f 341/3/5 337/3/5 336/3/5
f 341/4/5 336/4/5 340/4/5
f 341/3/5 338/3/5 337/3/5
f 342/3/5 312/3/5 338/3/5
f 342/3/5 338/3/5 341/3/5
f 343/4/6 344/4/6 347/4/6
f 347/4/6 344/4/6 348/4/6
f 345/4/6 346/4/6 349/4/6
f 349/4/6 346/4/6 350/4/6
f 351/4/6 352/4/6 353/4/6
f 353/4/6 352/4/6 354/4/6
f 355/4/6 356/4/6 359/4/6
f 359/4/6 356/4/6 360/4/6
f 357/4/6 358/4/6 361/4/6
f 361/4/6 358/4/6 362/4/6
f 363/4/6 364/4/6 367/4/6
f 367/4/6 364/4/6 368/4/6
f 365/3/6 366/3/6 371/3/6
f 371/3/6 366/3/6 372/3/6
f 369/4/6 370/4/6 373/4/6
f 373/4/6 370/4/6 376/4/6
f 376/4/6 370/4/6 377/4/6
f 374/4/6 375/4/6 380/4/6
f 380/4/6 375/4/6 381/4/6
f 378/4/6 379/4/6 384/4/6
f 382/4/6 383/4/6 385/4/6
f 385/4/6 383/4/6 386/4/6
f 384/4/6 379/4/6 387/4/6
f 387/4/6 379/4/6 388/4/6
f 389/4/6 390/4/6 393/4/6
f 393/4/6 390/4/6 394/4/6
f 391/4/6 392/4/6 397/4/6
f 397/4/6 392/4/6 398/4/6
f 395/4/6 396/4/6 399/4/6
f 399/4/6 396/4/6 400/4/6
f 401/3/6 402/3/6 409/3/6
f 409/3/6 402/3/6 410/3/6
f 410/3/6 402/3/6 411/3/6
f 402/4/6 403/4/6 412/4/6
f 411/3/6 402/3/6 412/3/6
f 403/3/6 404/3/6 413/3/6
f 412/4/6 403/4/6 413/4/6
f 413/3/6 404/3/6 414/3/6
f 414/3/6 404/3/6 415/3/6
f 404/2/6 405/2/6 416/2/6
f 415/3/6 404/3/6 416/3/6
f 405/3/6 406/3/6 417/3/6
f 416/2/6 405/2/6 417/2/6
f 417/3/6 406/3/6 418/3/6
f 407/3/6 408/3/6 419/3/6
f 419/3/6 408/3/6 420/3/6
f 401/3/6 409/3/6 421/3/6
f 409/1/6 410/1/6 421/1/6
f 410/3/6 411/3/6 422/3/6
f 421/1/6 410/1/6 422/1/6
f 422/3/6 411/3/6 423/3/6
f 412/3/6 413/3/6 424/3/6
f 413/3/6 414/3/6 424/3/6
f 414/2/6 415/2/6 425/2/6
f 424/3/6 414/3/6 425/3/6
f 417/3/6 418/3/6 426/3/6
f 425/2/6 415/2/6 426/2/6
f 415/3/6 416/3/6 426/3/6
f 418/3/6 419/3/6 426/3/6
f 416/3/6 417/3/6 426/3/6
f 426/3/6 419/3/6 427/3/6
f 427/3/6 419/3/6 428/3/6
f 419/1/6 420/1/6 429/1/6
f 428/3/6 419/3/6 429/3/6
f 429/1/6 420/1/6 430/1/6
f 424/3/6 425/3/6 431/3/6
f 423/3/6 424/3/6 431/3/6
f 422/3/6 423/3/6 431/3/6
f 421/3/6 422/3/6 431/3/6
f 426/3/6 427/3/6 431/3/6
f 425/3/6 426/3/6 431/3/6
f 431/3/6 427/3/6 432/3/6
f 432/3/6 427/3/6 433/3/6
f 433/3/6 427/3/6 434/3/6
f 434/3/6 427/3/6 435/3/6
f 435/3/6 427/3/6 436/3/6
f 427/4/6 428/4/6 437/4/6
f 436/3/6 427/3/6 437/3/6
f 429/3/6 430/3/6 438/3/6
f 437/4/6 428/4/6 438/4/6
f 428/3/6 429/3/6 438/3/6
f 438/3/6 430/3/6 439/3/6
f 439/3/6 430/3/6 440/3/6
f 421/3/6 431/3/6 441/3/6
f 431/2/6 432/2/6 441/2/6
f 432/3/6 433/3/6 442/3/6
f 441/2/6 432/2/6 442/2/6
f 433/2/6 434/2/6 443/2/6
f 442/3/6 433/3/6 443/3/6
f 434/3/6 435/3/6 444/3/6
f 443/2/6 434/2/6 444/2/6
f 444/3/6 435/3/6 445/3/6
f 436/3/6 437/3/6 446/3/6
f 438/3/6 439/3/6 446/3/6
f 437/3/6 438/3/6 446/3/6
f 439/2/6 440/2/6 447/2/6
f 446/3/6 439/3/6 447/3/6
f 447/2/6 440/2/6 448/2/6
f 401/3/6 421/3/6 449/3/6
f 444/3/6 445/3/6 449/3/6
f 442/3/6 443/3/6 449/3/6
f 443/3/6 444/3/6 449/3/6
f 421/3/6 441/3/6 449/3/6
f 441/3/6 442/3/6 449/3/6
f 449/3/6 445/3/6 450/3/6
f 450/3/6 445/3/6 451/3/6
f 451/3/6 445/3/6 452/3/6
f 445/4/6 446/4/6 453/4/6
f 452/3/6 445/3/6 453/3/6
f 447/3/6 448/3/6 454/3/6
f 453/4/6 446/4/6 454/4/6
f 446/3/6 447/3/6 454/3/6
f 454/3/6 448/3/6 455/3/6
f 455/3/6 448/3/6 456/3/6
f 401/3/6 449/3/6 457/3/6
f 450/3/6 451/3/6 458/3/6
f 458/3/6 451/3/6 459/3/6
f 452/3/6 453/3/6 460/3/6
f 454/3/6 455/3/6 460/3/6
f 453/3/6 454/3/6 460/3/6
f 455/2/6 456/2/6 461/2/6
f 460/3/6 455/3/6 461/3/6
f 456/3/6 448/3/6 462/3/6
f 461/2/6 456/2/6 462/2/6
f 462/3/6 448/3/6 463/3/6
f 463/3/6 448/3/6 464/3/6
f 458/3/6 459/3/6 465/3/6
f 457/3/6 458/3/6 465/3/6
f 465/3/6 459/3/6 466/3/6
f 459/4/6 460/4/6 467/4/6
f 466/3/6 459/3/6 467/3/6
f 460/3/6 461/3/6 468/3/6
f 467/4/6 460/4/6 468/4/6
f 462/3/6 463/3/6 468/3/6
f 461/3/6 462/3/6 468/3/6
f 468/3/6 463/3/6 469/3/6
f 469/3/6 463/3/6 470/3/6
f 470/3/6 463/3/6 471/3/6
f 471/3/6 463/3/6 472/3/6
f 472/3/6 463/3/6 473/3/6
f 473/3/6 463/3/6 474/3/6
f 465/2/6 466/2/6 476/2/6
f 457/3/6 465/3/6 476/3/6
f 466/3/6 467/3/6 477/3/6
f 476/2/6 466/2/6 477/2/6
f 467/3/6 468/3/6 477/3/6
f 468/3/6 469/3/6 477/3/6
f 477/3/6 469/3/6 478/3/6
f 478/3/6 469/3/6 479/3/6
f 479/3/6 469/3/6 480/3/6
f 480/3/6 469/3/6 481/3/6
f 470/4/6 471/4/6 482/4/6
f 471/3/6 472/3/6 483/3/6
f 482/4/6 471/4/6 483/4/6
f 472/1/6 473/1/6 484/1/6
f 483/3/6 472/3/6 484/3/6
f 473/3/6 474/3/6 485/3/6
f 484/1/6 473/1/6 485/1/6
f 474/4/6 475/4/6 486/4/6
f 485/3/6 474/3/6 486/3/6
f 486/4/6 475/4/6 487/4/6
f 401/3/6 457/3/6 488/3/6
f 457/3/6 476/3/6 488/3/6
f 476/3/6 477/3/6 488/3/6
f 488/3/6 477/3/6 489/3/6
f 477/4/6 478/4/6 490/4/6
f 489/3/6 477/3/6 490/3/6
f 478/3/6 479/3/6 491/3/6
f 490/4/6 478/4/6 491/4/6
f 491/3/6 479/3/6 492/3/6
f 481/3/6 482/3/6 493/3/6
f 480/3/6 481/3/6 493/3/6
f 493/3/6 482/3/6 494/3/6
f 482/2/6 483/2/6 495/2/6
f 494/3/6 482/3/6 495/3/6
f 484/3/6 485/3/6 496/3/6
f 495/2/6 483/2/6 496/2/6
f 483/3/6 484/3/6 496/3/6
f 485/2/6 486/2/6 497/2/6
f 496/3/6 485/3/6 497/3/6
f 486/3/6 487/3/6 498/3/6
f 497/2/6 486/2/6 498/2/6
f 488/1/6 489/1/6 499/1/6
f 401/3/6 488/3/6 499/3/6
f 490/3/6 491/3/6 500/3/6
f 499/1/6 489/1/6 500/1/6
f 489/3/6 490/3/6 500/3/6
f 500/3/6 491/3/6 501/3/6
f 491/4/6 492/4/6 502/4/6
f 501/3/6 491/3/6 502/3/6
f 502/4/6 492/4/6 503/4/6
f 480/3/6 493/3/6 504/3/6
f 493/2/6 494/2/6 505/2/6
f 504/3/6 493/3/6 505/3/6
f 496/3/6 497/3/6 506/3/6
f 505/2/6 494/2/6 506/2/6
f 494/3/6 495/3/6 506/3/6
f 495/3/6 496/3/6 506/3/6
f 497/3/6 498/3/6 506/3/6
f 506/3/6 498/3/6 507/3/6
f 507/3/6 498/3/6 508/3/6
f 508/3/6 498/3/6 509/3/6
f 509/3/6 498/3/6 510/3/6
f 498/3/6 487/3/6 511/3/6
f 510/3/6 498/3/6 511/3/6
f 401/3/6 499/3/6 512/3/6
f 499/3/6 500/3/6 512/3/6
f 512/3/6 500/3/6 513/3/6
f 513/3/6 500/3/6 514/3/6
f 504/3/6 505/3/6 515/3/6
f 502/3/6 503/3/6 515/3/6
f 503/3/6 504/3/6 515/3/6
f 501/3/6 502/3/6 515/3/6
f 506/3/6 507/3/6 515/3/6
f 505/3/6 506/3/6 515/3/6
f 515/3/6 507/3/6 516/3/6
f 516/3/6 507/3/6 517/3/6
f 507/2/6 508/2/6 518/2/6
f 517/3/6 507/3/6 518/3/6
f 518/2/6 508/2/6 519/2/6
f 510/2/6 511/2/6 520/2/6
f 509/3/6 510/3/6 520/3/6
f 511/3/6 487/3/6 521/3/6
f 520/2/6 511/2/6 521/2/6
f 512/2/6 513/2/6 522/2/6
f 513/3/6 514/3/6 523/3/6
f 522/2/6 513/2/6 523/2/6
f 514/3/6 515/3/6 523/3/6
f 515/3/6 516/3/6 523/3/6
f 523/3/6 516/3/6 524/3/6
f 524/3/6 516/3/6 525/3/6
f 525/3/6 516/3/6 526/3/6
f 518/3/6 519/3/6 527/3/6
f 517/3/6 518/3/6 527/3/6
f 527/3/6 519/3/6 528/3/6
f 528/3/6 519/3/6 529/3/6
f 529/3/6 519/3/6 530/3/6
f 509/3/6 520/3/6 531/3/6
f 520/3/6 521/3/6 531/3/6
f 522/3/6 523/3/6 532/3/6
f 523/3/6 524/3/6 532/3/6
f 532/3/6 524/3/6 533/3/6
f 524/4/6 525/4/6 534/4/6
f 533/3/6 524/3/6 534/3/6
f 525/3/6 526/3/6 535/3/6
f 534/4/6 525/4/6 535/4/6
f 526/4/6 527/4/6 536/4/6
f 535/3/6 526/3/6 536/3/6
f 527/3/6 528/3/6 537/3/6
f 536/4/6 527/4/6 537/4/6
f 528/2/6 529/2/6 538/2/6
f 537/3/6 528/3/6 538/3/6
f 529/3/6 530/3/6 539/3/6
f 538/2/6 529/2/6 539/2/6
f 530/3/6 531/3/6 539/3/6
f 539/3/6 531/3/6 540/3/6
f 540/3/6 531/3/6 541/3/6
f 531/3/6 521/3/6 542/3/6
f 541/3/6 531/3/6 542/3/6
f 542/3/6 521/3/6 543/3/6
f 521/3/6 487/3/6 544/3/6
f 543/3/6 521/3/6 544/3/6
f 532/2/6 533/2/6 545/2/6
f 533/3/6 534/3/6 546/3/6
f 545/2/6 533/2/6 546/2/6
f 546/3/6 534/3/6 547/3/6
f 534/2/6 535/2/6 548/2/6
f 547/3/6 534/3/6 548/3/6
f 537/3/6 538/3/6 549/3/6
f 548/2/6 535/2/6 549/2/6
f 536/3/6 537/3/6 549/3/6
f 535/3/6 536/3/6 549/3/6
f 538/3/6 539/3/6 549/3/6
f 549/3/6 539/3/6 550/3/6
f 539/1/6 540/1/6 551/1/6
f 550/3/6 539/3/6 551/3/6
f 540/3/6 541/3/6 552/3/6
f 551/1/6 540/1/6 552/1/6
f 541/4/6 542/4/6 553/4/6
f 552/3/6 541/3/6 553/3/6
f 542/3/6 543/3/6 554/3/6
f 553/4/6 542/4/6 554/4/6
f 543/4/6 544/4/6 555/4/6
f 554/3/6 543/3/6 555/3/6
f 544/3/6 487/3/6 556/3/6
f 555/4/6 544/4/6 556/4/6
f 545/3/6 546/3/6 557/3/6
f 547/3/6 548/3/6 558/3/6
f 548/3/6 549/3/6 558/3/6
f 549/3/6 550/3/6 558/3/6
f 558/3/6 550/3/6 559/3/6
f 559/3/6 550/3/6 560/3/6
f 560/3/6 550/3/6 561/3/6
f 561/3/6 550/3/6 562/3/6
f 550/2/6 551/2/6 563/2/6
f 562/3/6 550/3/6 563/3/6
f 552/3/6 553/3/6 564/3/6
f 563/2/6 551/2/6 564/2/6
f 554/3/6 555/3/6 564/3/6
f 551/3/6 552/3/6 564/3/6
f 553/3/6 554/3/6 564/3/6
f 564/3/6 555/3/6 565/3/6
f 556/3/6 487/3/6 566/3/6
f 566/3/6 487/3/6 567/3/6
f 545/3/6 557/3/6 568/3/6
f 558/3/6 559/3/6 568/3/6
f 557/3/6 558/3/6 568/3/6
f 559/2/6 560/2/6 569/2/6
f 568/3/6 559/3/6 569/3/6
f 560/3/6 561/3/6 570/3/6
f 569/2/6 560/2/6 570/2/6
f 570/3/6 561/3/6 571/3/6
f 562/3/6 563/3/6 572/3/6
f 564/3/6 565/3/6 572/3/6
f 565/3/6 566/3/6 572/3/6
f 563/3/6 564/3/6 572/3/6
f 566/1/6 567/1/6 573/1/6
f 572/3/6 566/3/6 573/3/6
f 573/1/6 567/1/6 574/1/6
