# MagicaVoxel @ Ephtracy

# group
o 

# material
mtllib characterKnight.mtl
usemtl palette

# normals
vn -1 0 0
vn 1 0 0
vn 0 0 1
vn 0 0 -1
vn 0 -1 0
vn 0 1 0

# texcoords
vt 0.955078 0.5
vt 0.982422 0.5
vt 0.986328 0.5
vt 0.990234 0.5
vt 0.994141 0.5

# verts
v 1.1 2.7 -1.7
v 1.1 2.7 -1.8
v 1.1 2.8 -1.7
v 1.1 2.8 -1.8
v 1.4 2 -1.5
v 1.4 2 -1.6
v 1.4 2 -1.8
v 1.4 2.1 -1.5
v 1.4 2.1 -1.6
v 1.4 2.1 -1.8
v 1.4 2.3 -1.6
v 1.4 2.3 -1.7
v 1.4 2.3 -1.8
v 1.4 2.4 -1.6
v 1.4 2.4 -1.7
v 1.4 2.5 -1.7
v 1.4 2.5 -1.8
v 1.4 2.8 -1.5
v 1.4 2.8 -1.6
v 1.4 2.9 -1.5
v 1.4 2.9 -1.6
v 1.4 2.9 -1.9
v 1.4 3.2 -1.5
v 1.4 3.2 -1.6
v 1.4 3.2 -1.8
v 1.4 3.2 -1.9
v 1.4 3.3 -1.6
v 1.4 3.3 -1.8
v 1.5 2.1 -1.6
v 1.5 2.1 -1.8
v 1.5 2.3 -1.5
v 1.5 2.3 -1.6
v 1.5 2.3 -1.7
v 1.5 2.3 -1.8
v 1.5 2.3 -1.9
v 1.5 2.4 -1.5
v 1.5 2.4 -1.6
v 1.5 2.4 -1.7
v 1.5 2.4 -1.8
v 1.5 2.4 -1.9
v 1.5 2.5 -1.7
v 1.5 2.5 -1.8
v 1.5 2.6 -1.6
v 1.5 2.6 -1.7
v 1.5 2.6 -1.8
v 1.5 2.7 -1.7
v 1.5 2.7 -1.8
v 1.5 2.8 -1.6
v 1.5 2.8 -1.7
v 1.5 2.8 -1.8
v 1.5 2.8 -1.9
v 1.5 2.9 -1.6
v 1.5 2.9 -1.7
v 1.5 2.9 -1.9
v 1.5 3.2 -1.5
v 1.5 3.2 -1.6
v 1.5 3.2 -1.8
v 1.5 3.2 -1.9
v 1.5 3.3 -1.5
v 1.5 3.3 -1.6
v 1.5 3.3 -1.8
v 1.5 3.3 -1.9
v 1.5 3.4 -1.6
v 1.5 3.4 -1.8
v 1.6 2.4 -1.8
v 1.6 2.4 -1.9
v 1.6 2.5 -1.8
v 1.6 2.5 -1.9
v 1.6 2.9 -1.9
v 1.6 2.9 -2
v 1.6 3.1 -1.9
v 1.6 3.1 -2
v 1.7 2.3 -1.7
v 1.7 2.3 -1.9
v 1.7 2.4 -1.5
v 1.7 2.4 -1.6
v 1.7 2.4 -1.7
v 1.7 2.4 -1.9
v 1.7 2.5 -1.5
v 1.7 2.5 -1.6
v 1.7 2.8 -1.9
v 1.7 2.8 -2
v 1.7 2.9 -1.9
v 1.7 2.9 -2
v 1.8 2 -1.5
v 1.8 2 -1.6
v 1.8 2 -1.8
v 1.8 2.1 -1.5
v 1.8 2.1 -1.6
v 1.8 2.1 -1.8
v 1.8 2.3 -1.5
v 1.8 2.3 -1.6
v 1.8 2.3 -1.7
v 1.8 2.3 -1.8
v 1.8 2.4 -1.5
v 1.8 2.4 -1.6
v 1.8 2.4 -1.7
v 1.9 3 -1.5
v 1.9 3 -1.6
v 1.9 3.1 -1.5
v 1.9 3.1 -1.6
v 1.5 3 -1.5
v 1.5 3 -1.6
v 1.5 3.1 -1.5
v 1.5 3.1 -1.6
v 1.6 2 -1.5
v 1.6 2 -1.8
v 1.6 2.1 -1.5
v 1.6 2.1 -1.6
v 1.6 2.1 -1.8
v 1.6 2.3 -1.5
v 1.6 2.3 -1.6
v 1.6 2.3 -1.8
v 1.6 2.3 -1.9
v 1.6 2.4 -1.5
v 1.6 2.4 -1.6
v 1.6 2.4 -1.8
v 1.6 2.4 -1.9
v 1.7 2.9 -1.9
v 1.7 2.9 -2
v 1.7 3 -1.9
v 1.7 3 -2
v 1.8 2.4 -1.5
v 1.8 2.4 -1.6
v 1.8 2.4 -1.8
v 1.8 2.4 -1.9
v 1.8 2.5 -1.5
v 1.8 2.5 -1.6
v 1.8 2.5 -1.8
v 1.8 2.5 -1.9
v 1.8 2.8 -1.9
v 1.8 2.8 -2
v 1.8 2.9 -1.9
v 1.8 2.9 -2
v 1.8 3 -1.9
v 1.8 3 -2
v 1.8 3.1 -1.9
v 1.8 3.1 -2
v 1.8 3.2 -1.5
v 1.8 3.2 -1.6
v 1.8 3.3 -1.5
v 1.8 3.3 -1.6
v 1.9 2.1 -1.6
v 1.9 2.1 -1.8
v 1.9 2.3 -1.5
v 1.9 2.3 -1.6
v 1.9 2.3 -1.7
v 1.9 2.3 -1.8
v 1.9 2.3 -1.9
v 1.9 2.4 -1.5
v 1.9 2.4 -1.6
v 1.9 2.4 -1.7
v 1.9 2.4 -1.8
v 1.9 2.4 -1.9
v 1.9 2.5 -1.7
v 1.9 2.5 -1.8
v 1.9 2.6 -1.7
v 1.9 2.6 -1.8
v 1.9 2.7 -1.6
v 1.9 2.7 -1.7
v 1.9 2.7 -1.8
v 1.9 2.8 -1.6
v 1.9 2.8 -1.7
v 1.9 2.9 -1.6
v 1.9 2.9 -1.7
v 1.9 2.9 -1.8
v 1.9 2.9 -1.9
v 1.9 3 -1.8
v 1.9 3 -1.9
v 1.9 3.2 -1.8
v 1.9 3.2 -1.9
v 1.9 3.3 -1.6
v 1.9 3.3 -1.7
v 1.9 3.3 -1.8
v 1.9 3.3 -1.9
v 1.9 3.4 -1.6
v 1.9 3.4 -1.8
v 2 2 -1.5
v 2 2 -1.8
v 2 2.1 -1.5
v 2 2.1 -1.8
v 2 2.3 -1.6
v 2 2.3 -1.7
v 2 2.3 -1.8
v 2 2.4 -1.6
v 2 2.4 -1.7
v 2 2.4 -1.8
v 2 2.8 -1.5
v 2 2.8 -1.6
v 2 2.8 -1.7
v 2 2.8 -1.8
v 2 2.8 -1.9
v 2 2.9 -1.5
v 2 2.9 -1.6
v 2 2.9 -1.7
v 2 2.9 -1.8
v 2 2.9 -1.9
v 2 3 -1.5
v 2 3 -1.6
v 2 3 -1.8
v 2 3 -1.9
v 2 3.1 -1.5
v 2 3.1 -1.6
v 2 3.2 -1.5
v 2 3.2 -1.6
v 2 3.2 -1.7
v 2 3.2 -1.8
v 2 3.2 -1.9
v 2 3.3 -1.6
v 2 3.3 -1.7
v 2 3.3 -1.8
v 2.3 2.7 -1.7
v 2.3 2.7 -1.8
v 2.3 2.8 -1.7
v 2.3 2.8 -1.8
v 1.4 2 -1.5
v 1.4 2.1 -1.5
v 1.4 2.8 -1.5
v 1.4 2.9 -1.5
v 1.4 3.2 -1.5
v 1.5 2 -1.5
v 1.5 2.1 -1.5
v 1.5 2.3 -1.5
v 1.5 2.4 -1.5
v 1.5 2.8 -1.5
v 1.5 2.9 -1.5
v 1.5 3 -1.5
v 1.5 3.1 -1.5
v 1.5 3.2 -1.5
v 1.5 3.3 -1.5
v 1.6 2 -1.5
v 1.6 2.1 -1.5
v 1.6 2.3 -1.5
v 1.6 2.4 -1.5
v 1.7 2.4 -1.5
v 1.7 2.5 -1.5
v 1.7 3.2 -1.5
v 1.7 3.3 -1.5
v 1.8 2 -1.5
v 1.8 2.1 -1.5
v 1.8 2.3 -1.5
v 1.8 2.4 -1.5
v 1.8 2.5 -1.5
v 1.8 2.8 -1.5
v 1.8 2.9 -1.5
v 1.8 3.2 -1.5
v 1.8 3.3 -1.5
v 1.9 2 -1.5
v 1.9 2.1 -1.5
v 1.9 2.3 -1.5
v 1.9 2.4 -1.5
v 1.9 3 -1.5
v 1.9 3.1 -1.5
v 2 2 -1.5
v 2 2.1 -1.5
v 2 2.8 -1.5
v 2 2.9 -1.5
v 2 3 -1.5
v 2 3.1 -1.5
v 2 3.2 -1.5
v 1.4 2.3 -1.6
v 1.4 2.4 -1.6
v 1.4 3.2 -1.6
v 1.4 3.3 -1.6
v 1.5 2.1 -1.6
v 1.5 2.3 -1.6
v 1.5 2.4 -1.6
v 1.5 2.6 -1.6
v 1.5 2.8 -1.6
v 1.5 3 -1.6
v 1.5 3.1 -1.6
v 1.5 3.2 -1.6
v 1.5 3.3 -1.6
v 1.5 3.4 -1.6
v 1.6 2.1 -1.6
v 1.6 2.3 -1.6
v 1.6 2.4 -1.6
v 1.6 2.5 -1.6
v 1.6 2.6 -1.6
v 1.6 2.7 -1.6
v 1.6 2.8 -1.6
v 1.7 2.4 -1.6
v 1.7 2.5 -1.6
v 1.7 2.7 -1.6
v 1.7 3.3 -1.6
v 1.8 2.1 -1.6
v 1.8 2.3 -1.6
v 1.8 2.4 -1.6
v 1.8 2.5 -1.6
v 1.8 2.7 -1.6
v 1.8 2.8 -1.6
v 1.8 3.2 -1.6
v 1.8 3.3 -1.6
v 1.9 2.1 -1.6
v 1.9 2.3 -1.6
v 1.9 2.4 -1.6
v 1.9 2.7 -1.6
v 1.9 2.8 -1.6
v 1.9 3 -1.6
v 1.9 3.1 -1.6
v 1.9 3.3 -1.6
v 1.9 3.4 -1.6
v 2 2.3 -1.6
v 2 2.4 -1.6
v 2 3.2 -1.6
v 2 3.3 -1.6
v 1.1 2.7 -1.7
v 1.1 2.8 -1.7
v 1.4 2.4 -1.7
v 1.4 2.5 -1.7
v 1.5 2.4 -1.7
v 1.5 2.5 -1.7
v 1.5 2.7 -1.7
v 1.5 2.8 -1.7
v 1.7 2.3 -1.7
v 1.7 2.4 -1.7
v 1.8 2.3 -1.7
v 1.8 2.4 -1.7
v 1.9 2.7 -1.7
v 1.9 2.8 -1.7
v 1.9 2.9 -1.7
v 2 2.8 -1.7
v 2 2.9 -1.7
v 2.3 2.7 -1.7
v 2.3 2.8 -1.7
v 1.4 2.8 -1.6
v 1.4 2.9 -1.6
v 1.5 2.8 -1.6
v 1.5 2.9 -1.6
v 1.9 2.8 -1.6
v 1.9 2.9 -1.6
v 2 2.8 -1.6
v 2 2.9 -1.6
v 1.1 2.7 -1.8
v 1.1 2.8 -1.8
v 1.4 2 -1.8
v 1.4 2.1 -1.8
v 1.4 2.3 -1.8
v 1.4 2.5 -1.8
v 1.4 3.2 -1.8
v 1.4 3.3 -1.8
v 1.5 2.1 -1.8
v 1.5 2.3 -1.8
v 1.5 2.4 -1.8
v 1.5 2.5 -1.8
v 1.5 2.6 -1.8
v 1.5 2.7 -1.8
v 1.5 2.8 -1.8
v 1.5 3.2 -1.8
v 1.5 3.3 -1.8
v 1.5 3.4 -1.8
v 1.6 2 -1.8
v 1.6 2.1 -1.8
v 1.6 2.3 -1.8
v 1.6 2.4 -1.8
v 1.6 2.5 -1.8
v 1.6 2.6 -1.8
v 1.6 2.7 -1.8
v 1.7 2.6 -1.8
v 1.7 2.7 -1.8
v 1.7 3.3 -1.8
v 1.8 2 -1.8
v 1.8 2.1 -1.8
v 1.8 2.3 -1.8
v 1.8 2.4 -1.8
v 1.8 2.5 -1.8
v 1.8 2.6 -1.8
v 1.8 2.7 -1.8
v 1.8 2.8 -1.8
v 1.8 3.3 -1.8
v 1.9 2.1 -1.8
v 1.9 2.3 -1.8
v 1.9 2.4 -1.8
v 1.9 2.5 -1.8
v 1.9 2.6 -1.8
v 1.9 2.7 -1.8
v 1.9 2.8 -1.8
v 1.9 2.9 -1.8
v 1.9 3 -1.8
v 1.9 3.2 -1.8
v 1.9 3.3 -1.8
v 1.9 3.4 -1.8
v 2 2 -1.8
v 2 2.1 -1.8
v 2 2.3 -1.8
v 2 2.4 -1.8
v 2 2.8 -1.8
v 2 2.9 -1.8
v 2 3 -1.8
v 2 3.2 -1.8
v 2 3.3 -1.8
v 2.3 2.7 -1.8
v 2.3 2.8 -1.8
v 1.4 2.9 -1.9
v 1.4 3.2 -1.9
v 1.5 2.3 -1.9
v 1.5 2.4 -1.9
v 1.5 2.8 -1.9
v 1.5 2.9 -1.9
v 1.5 3.2 -1.9
v 1.5 3.3 -1.9
v 1.6 2.3 -1.9
v 1.6 2.4 -1.9
v 1.6 2.5 -1.9
v 1.6 2.9 -1.9
v 1.6 3.1 -1.9
v 1.6 3.2 -1.9
v 1.7 2.3 -1.9
v 1.7 2.4 -1.9
v 1.7 2.8 -1.9
v 1.7 2.9 -1.9
v 1.7 3 -1.9
v 1.7 3.2 -1.9
v 1.7 3.3 -1.9
v 1.8 2.4 -1.9
v 1.8 2.5 -1.9
v 1.8 2.8 -1.9
v 1.8 2.9 -1.9
v 1.8 3 -1.9
v 1.8 3.1 -1.9
v 1.8 3.3 -1.9
v 1.9 2.3 -1.9
v 1.9 2.4 -1.9
v 1.9 2.8 -1.9
v 1.9 2.9 -1.9
v 1.9 3 -1.9
v 1.9 3.2 -1.9
v 1.9 3.3 -1.9
v 2 2.8 -1.9
v 2 2.9 -1.9
v 2 3 -1.9
v 2 3.2 -1.9
v 1.6 2.9 -2
v 1.6 3.1 -2
v 1.7 2.8 -2
v 1.7 2.9 -2
v 1.7 3 -2
v 1.8 2.8 -2
v 1.8 2.9 -2
v 1.8 3 -2
v 1.8 3.1 -2
v 1.4 2 -1.5
v 1.5 2 -1.5
v 1.6 2 -1.5
v 1.8 2 -1.5
v 1.9 2 -1.5
v 2 2 -1.5
v 1.4 2 -1.6
v 1.5 2 -1.6
v 1.8 2 -1.6
v 1.9 2 -1.6
v 1.4 2 -1.8
v 1.6 2 -1.8
v 1.8 2 -1.8
v 2 2 -1.8
v 1.5 2.3 -1.5
v 1.6 2.3 -1.5
v 1.8 2.3 -1.5
v 1.9 2.3 -1.5
v 1.4 2.3 -1.6
v 1.5 2.3 -1.6
v 1.6 2.3 -1.6
v 1.8 2.3 -1.6
v 1.9 2.3 -1.6
v 2 2.3 -1.6
v 1.4 2.3 -1.7
v 1.5 2.3 -1.7
v 1.7 2.3 -1.7
v 1.8 2.3 -1.7
v 1.9 2.3 -1.7
v 2 2.3 -1.7
v 1.4 2.3 -1.8
v 1.5 2.3 -1.8
v 1.6 2.3 -1.8
v 1.8 2.3 -1.8
v 1.9 2.3 -1.8
v 2 2.3 -1.8
v 1.5 2.3 -1.9
v 1.6 2.3 -1.9
v 1.7 2.3 -1.9
v 1.9 2.3 -1.9
v 1.7 2.4 -1.5
v 1.8 2.4 -1.5
v 1.6 2.4 -1.6
v 1.7 2.4 -1.6
v 1.8 2.4 -1.6
v 1.7 2.4 -1.7
v 1.8 2.4 -1.7
v 1.6 2.4 -1.8
v 1.6 2.4 -1.9
v 1.7 2.4 -1.9
v 1.1 2.7 -1.7
v 1.5 2.7 -1.7
v 1.9 2.7 -1.7
v 2.3 2.7 -1.7
v 1.1 2.7 -1.8
v 1.5 2.7 -1.8
v 1.9 2.7 -1.8
v 2.3 2.7 -1.8
v 1.4 2.8 -1.5
v 1.5 2.8 -1.5
v 1.8 2.8 -1.5
v 2 2.8 -1.5
v 1.4 2.8 -1.6
v 1.5 2.8 -1.6
v 1.6 2.8 -1.6
v 1.8 2.8 -1.6
v 1.9 2.8 -1.6
v 2 2.8 -1.6
v 1.5 2.8 -1.8
v 1.8 2.8 -1.8
v 1.9 2.8 -1.8
v 2 2.8 -1.8
v 1.5 2.8 -1.9
v 1.7 2.8 -1.9
v 1.8 2.8 -1.9
v 1.9 2.8 -1.9
v 2 2.8 -1.9
v 1.7 2.8 -2
v 1.8 2.8 -2
v 1.4 2.9 -1.6
v 1.5 2.9 -1.6
v 1.9 2.9 -1.6
v 2 2.9 -1.6
v 1.5 2.9 -1.7
v 1.9 2.9 -1.7
v 2 2.9 -1.7
v 1.4 2.9 -1.9
v 1.5 2.9 -1.9
v 1.6 2.9 -1.9
v 1.7 2.9 -1.9
v 1.6 2.9 -2
v 1.7 2.9 -2
v 1.9 3 -1.8
v 2 3 -1.8
v 1.7 3 -1.9
v 1.8 3 -1.9
v 1.9 3 -1.9
v 2 3 -1.9
v 1.7 3 -2
v 1.8 3 -2
v 1.5 3.1 -1.5
v 1.9 3.1 -1.5
v 1.5 3.1 -1.6
v 1.9 3.1 -1.6
v 1.4 2.1 -1.5
v 1.5 2.1 -1.5
v 1.6 2.1 -1.5
v 1.8 2.1 -1.5
v 1.9 2.1 -1.5
v 2 2.1 -1.5
v 1.4 2.1 -1.6
v 1.5 2.1 -1.6
v 1.6 2.1 -1.6
v 1.8 2.1 -1.6
v 1.9 2.1 -1.6
v 1.4 2.1 -1.8
v 1.5 2.1 -1.8
v 1.9 2.1 -1.8
v 2 2.1 -1.8
v 1.5 2.4 -1.5
v 1.6 2.4 -1.5
v 1.8 2.4 -1.5
v 1.9 2.4 -1.5
v 1.4 2.4 -1.6
v 1.5 2.4 -1.6
v 1.6 2.4 -1.6
v 1.8 2.4 -1.6
v 1.9 2.4 -1.6
v 2 2.4 -1.6
v 1.4 2.4 -1.7
v 1.5 2.4 -1.7
v 1.9 2.4 -1.7
v 2 2.4 -1.7
v 1.5 2.4 -1.8
v 1.6 2.4 -1.8
v 1.8 2.4 -1.8
v 1.9 2.4 -1.8
v 2 2.4 -1.8
v 1.5 2.4 -1.9
v 1.6 2.4 -1.9
v 1.8 2.4 -1.9
v 1.9 2.4 -1.9
v 1.7 2.5 -1.5
v 1.8 2.5 -1.5
v 1.7 2.5 -1.6
v 1.8 2.5 -1.6
v 1.4 2.5 -1.7
v 1.5 2.5 -1.7
v 1.4 2.5 -1.8
v 1.5 2.5 -1.8
v 1.6 2.5 -1.8
v 1.8 2.5 -1.8
v 1.6 2.5 -1.9
v 1.8 2.5 -1.9
v 1.1 2.8 -1.7
v 1.5 2.8 -1.7
v 2 2.8 -1.7
v 2.3 2.8 -1.7
v 1.1 2.8 -1.8
v 1.5 2.8 -1.8
v 2 2.8 -1.8
v 2.3 2.8 -1.8
v 1.9 2.9 -1.8
v 2 2.9 -1.8
v 1.7 2.9 -1.9
v 1.8 2.9 -1.9
v 1.9 2.9 -1.9
v 2 2.9 -1.9
v 1.7 2.9 -2
v 1.8 2.9 -2
v 1.5 3 -1.5
v 1.9 3 -1.5
v 1.5 3 -1.6
v 1.9 3 -1.6
v 1.6 3.1 -1.9
v 1.8 3.1 -1.9
v 1.6 3.1 -2
v 1.8 3.1 -2
v 1.4 3.2 -1.5
v 1.5 3.2 -1.5
v 1.8 3.2 -1.5
v 2 3.2 -1.5
v 1.4 3.2 -1.6
v 1.5 3.2 -1.6
v 1.8 3.2 -1.6
v 2 3.2 -1.6
v 1.4 3.2 -1.8
v 1.5 3.2 -1.8
v 1.9 3.2 -1.8
v 2 3.2 -1.8
v 1.4 3.2 -1.9
v 1.5 3.2 -1.9
v 1.9 3.2 -1.9
v 2 3.2 -1.9
v 1.5 3.3 -1.5
v 1.7 3.3 -1.5
v 1.8 3.3 -1.5
v 1.4 3.3 -1.6
v 1.5 3.3 -1.6
v 1.7 3.3 -1.6
v 1.8 3.3 -1.6
v 1.9 3.3 -1.6
v 2 3.3 -1.6
v 1.9 3.3 -1.7
v 2 3.3 -1.7
v 1.4 3.3 -1.8
v 1.5 3.3 -1.8
v 1.7 3.3 -1.8
v 1.8 3.3 -1.8
v 1.9 3.3 -1.8
v 2 3.3 -1.8
v 1.5 3.3 -1.9
v 1.7 3.3 -1.9
v 1.8 3.3 -1.9
v 1.9 3.3 -1.9
v 1.5 3.4 -1.6
v 1.9 3.4 -1.6
v 1.5 3.4 -1.8
v 1.9 3.4 -1.8

# faces
f 3/4/1 2/4/1 1/4/1
f 4/4/1 2/4/1 3/4/1
f 8/5/1 6/5/1 5/5/1
f 9/4/1 7/4/1 6/4/1
f 9/5/1 6/5/1 8/5/1
f 10/4/1 7/4/1 9/4/1
f 14/5/1 12/5/1 11/5/1
f 15/4/1 13/4/1 12/4/1
f 15/5/1 12/5/1 14/5/1
f 16/4/1 13/4/1 15/4/1
f 17/4/1 13/4/1 16/4/1
f 20/4/1 19/4/1 18/4/1
f 21/4/1 19/4/1 20/4/1
f 23/5/1 21/5/1 20/5/1
f 24/4/1 22/4/1 21/4/1
f 24/5/1 21/5/1 23/5/1
f 25/4/1 22/4/1 24/4/1
f 26/4/1 22/4/1 25/4/1
f 27/4/1 25/4/1 24/4/1
f 28/4/1 25/4/1 27/4/1
f 32/3/1 30/3/1 29/3/1
f 33/3/1 30/3/1 32/3/1
f 34/3/1 30/3/1 33/3/1
f 36/4/1 32/4/1 31/4/1
f 37/4/1 32/4/1 36/4/1
f 39/4/1 35/4/1 34/4/1
f 40/4/1 35/4/1 39/4/1
f 41/4/1 38/4/1 37/4/1
f 43/4/1 41/4/1 37/4/1
f 44/5/1 42/5/1 41/5/1
f 44/4/1 41/4/1 43/4/1
f 45/5/1 42/5/1 44/5/1
f 46/5/1 44/5/1 43/5/1
f 46/4/1 45/4/1 44/4/1
f 47/4/1 45/4/1 46/4/1
f 48/5/1 46/5/1 43/5/1
f 49/5/1 46/5/1 48/5/1
f 52/5/1 49/5/1 48/5/1
f 53/4/1 50/4/1 49/4/1
f 53/5/1 49/5/1 52/5/1
f 53/4/1 51/4/1 50/4/1
f 54/4/1 51/4/1 53/4/1
f 59/4/1 56/4/1 55/4/1
f 60/4/1 56/4/1 59/4/1
f 61/4/1 58/4/1 57/4/1
f 62/4/1 58/4/1 61/4/1
f 63/5/1 61/5/1 60/5/1
f 64/5/1 61/5/1 63/5/1
f 67/4/1 66/4/1 65/4/1
f 68/4/1 66/4/1 67/4/1
f 71/5/1 70/5/1 69/5/1
f 72/5/1 70/5/1 71/5/1
f 77/4/1 74/4/1 73/4/1
f 78/4/1 74/4/1 77/4/1
f 79/5/1 76/5/1 75/5/1
f 80/5/1 76/5/1 79/5/1
f 83/4/1 82/4/1 81/4/1
f 84/4/1 82/4/1 83/4/1
f 88/5/1 86/5/1 85/5/1
f 89/4/1 87/4/1 86/4/1
f 89/5/1 86/5/1 88/5/1
f 90/4/1 87/4/1 89/4/1
f 92/3/1 90/3/1 89/3/1
f 93/3/1 90/3/1 92/3/1
f 94/3/1 90/3/1 93/3/1
f 95/4/1 92/4/1 91/4/1
f 96/3/1 93/3/1 92/3/1
f 96/4/1 92/4/1 95/4/1
f 97/3/1 93/3/1 96/3/1
f 100/4/1 99/4/1 98/4/1
f 101/4/1 99/4/1 100/4/1
f 102/5/2 103/5/2 104/5/2
f 104/5/2 103/5/2 105/5/2
f 106/4/2 107/4/2 108/4/2
f 108/4/2 107/4/2 109/4/2
f 109/4/2 107/4/2 110/4/2
f 109/3/2 110/3/2 112/3/2
f 112/3/2 110/3/2 113/3/2
f 111/4/2 112/4/2 115/4/2
f 112/3/2 113/3/2 116/3/2
f 115/4/2 112/4/2 116/4/2
f 113/4/2 114/4/2 117/4/2
f 116/3/2 113/3/2 117/3/2
f 117/4/2 114/4/2 118/4/2
f 119/5/2 120/5/2 121/5/2
f 121/5/2 120/5/2 122/5/2
f 123/5/2 124/5/2 127/5/2
f 127/5/2 124/5/2 128/5/2
f 125/4/2 126/4/2 129/4/2
f 129/4/2 126/4/2 130/4/2
f 131/4/2 132/4/2 133/4/2
f 133/4/2 132/4/2 134/4/2
f 135/5/2 136/5/2 137/5/2
f 137/5/2 136/5/2 138/5/2
f 139/5/2 140/5/2 141/5/2
f 141/5/2 140/5/2 142/5/2
f 143/3/2 144/3/2 146/3/2
f 146/3/2 144/3/2 147/3/2
f 147/3/2 144/3/2 148/3/2
f 145/4/2 146/4/2 150/4/2
f 150/4/2 146/4/2 151/4/2
f 148/4/2 149/4/2 153/4/2
f 153/4/2 149/4/2 154/4/2
f 151/4/2 152/4/2 155/4/2
f 152/4/2 153/4/2 155/4/2
f 155/4/2 153/4/2 156/4/2
f 151/4/2 155/4/2 157/4/2
f 155/5/2 156/5/2 157/5/2
f 157/5/2 156/5/2 158/5/2
f 151/4/2 157/4/2 159/4/2
f 157/4/2 158/4/2 159/4/2
f 159/4/2 158/4/2 160/4/2
f 160/4/2 158/4/2 161/4/2
f 159/5/2 160/5/2 162/5/2
f 162/5/2 160/5/2 163/5/2
f 162/4/2 163/4/2 164/4/2
f 164/4/2 163/4/2 165/4/2
f 166/4/2 167/4/2 168/4/2
f 168/4/2 167/4/2 169/4/2
f 170/4/2 171/4/2 174/4/2
f 174/4/2 171/4/2 175/4/2
f 172/5/2 173/5/2 176/5/2
f 173/5/2 174/5/2 176/5/2
f 176/5/2 174/5/2 177/5/2
f 178/4/2 179/4/2 180/4/2
f 180/4/2 179/4/2 181/4/2
f 182/4/2 183/4/2 185/4/2
f 183/5/2 184/5/2 186/5/2
f 185/4/2 183/4/2 186/4/2
f 186/5/2 184/5/2 187/5/2
f 188/4/2 189/4/2 193/4/2
f 193/4/2 189/4/2 194/4/2
f 190/4/2 191/4/2 195/4/2
f 191/4/2 192/4/2 195/4/2
f 195/4/2 192/4/2 196/4/2
f 196/4/2 192/4/2 197/4/2
f 193/5/2 194/5/2 198/5/2
f 194/4/2 195/4/2 199/4/2
f 198/5/2 194/5/2 199/5/2
f 195/4/2 196/4/2 199/4/2
f 199/4/2 196/4/2 200/4/2
f 198/4/2 199/4/2 202/4/2
f 200/4/2 201/4/2 202/4/2
f 199/4/2 200/4/2 202/4/2
f 202/4/2 201/4/2 203/4/2
f 202/5/2 203/5/2 204/5/2
f 203/4/2 201/4/2 205/4/2
f 204/5/2 203/5/2 205/5/2
f 205/4/2 201/4/2 206/4/2
f 206/4/2 201/4/2 207/4/2
f 207/4/2 201/4/2 208/4/2
f 205/4/2 206/4/2 209/4/2
f 206/5/2 207/5/2 210/5/2
f 209/4/2 206/4/2 210/4/2
f 210/5/2 207/5/2 211/5/2
f 212/4/2 213/4/2 214/4/2
f 214/4/2 213/4/2 215/4/2
f 221/5/3 217/5/3 216/5/3
f 222/5/3 217/5/3 221/5/3
f 225/4/3 219/4/3 218/4/3
f 226/5/3 220/5/3 219/5/3
f 226/4/3 219/4/3 225/4/3
f 227/5/3 220/5/3 226/5/3
f 228/5/3 220/5/3 227/5/3
f 229/5/3 220/5/3 228/5/3
f 231/4/3 222/4/3 221/4/3
f 232/4/3 222/4/3 231/4/3
f 233/4/3 224/4/3 223/4/3
f 234/4/3 224/4/3 233/4/3
f 237/4/3 230/4/3 229/4/3
f 237/5/3 229/5/3 228/5/3
f 238/4/3 230/4/3 237/4/3
f 242/5/3 236/5/3 235/5/3
f 243/5/3 236/5/3 242/5/3
f 244/5/3 226/5/3 225/5/3
f 244/5/3 227/5/3 226/5/3
f 245/5/3 227/5/3 244/5/3
f 246/5/3 237/5/3 228/5/3
f 246/5/3 238/5/3 237/5/3
f 247/5/3 238/5/3 246/5/3
f 248/5/3 240/5/3 239/5/3
f 249/5/3 240/5/3 248/5/3
f 250/4/3 242/4/3 241/4/3
f 251/4/3 242/4/3 250/4/3
f 252/5/3 227/5/3 245/5/3
f 253/5/3 246/5/3 228/5/3
f 254/4/3 249/4/3 248/4/3
f 255/4/3 249/4/3 254/4/3
f 256/4/3 245/4/3 244/4/3
f 257/5/3 252/5/3 245/5/3
f 257/4/3 245/4/3 256/4/3
f 258/4/3 253/4/3 252/4/3
f 258/5/3 252/5/3 257/5/3
f 259/5/3 246/5/3 253/5/3
f 259/4/3 253/4/3 258/4/3
f 260/5/3 246/5/3 259/5/3
f 266/5/3 262/5/3 261/5/3
f 267/5/3 262/5/3 266/5/3
f 272/4/3 264/4/3 263/4/3
f 273/4/3 264/4/3 272/4/3
f 275/3/3 266/3/3 265/3/3
f 276/3/3 266/3/3 275/3/3
f 277/4/3 268/4/3 267/4/3
f 278/4/3 268/4/3 277/4/3
f 279/5/3 269/5/3 268/5/3
f 279/4/3 268/4/3 278/4/3
f 280/5/3 269/5/3 279/5/3
f 281/5/3 269/5/3 280/5/3
f 282/4/3 278/4/3 277/4/3
f 283/5/3 279/5/3 278/5/3
f 283/4/3 278/4/3 282/4/3
f 283/5/3 280/5/3 279/5/3
f 284/4/3 281/4/3 280/4/3
f 284/5/3 280/5/3 283/5/3
f 285/5/3 274/5/3 273/5/3
f 289/4/3 284/4/3 283/4/3
f 290/4/3 281/4/3 284/4/3
f 290/4/3 284/4/3 289/4/3
f 291/4/3 281/4/3 290/4/3
f 293/5/3 274/5/3 285/5/3
f 294/3/3 287/3/3 286/3/3
f 295/3/3 287/3/3 294/3/3
f 296/4/3 289/4/3 288/4/3
f 296/4/3 290/4/3 289/4/3
f 297/5/3 291/5/3 290/5/3
f 297/4/3 290/4/3 296/4/3
f 298/5/3 291/5/3 297/5/3
f 299/1/3 271/1/3 270/1/3
f 300/1/3 271/1/3 299/1/3
f 301/4/3 293/4/3 292/4/3
f 301/5/3 274/5/3 293/5/3
f 302/5/3 274/5/3 301/5/3
f 303/4/3 296/4/3 295/4/3
f 304/4/3 296/4/3 303/4/3
f 305/4/3 301/4/3 292/4/3
f 306/4/3 301/4/3 305/4/3
f 311/4/3 310/4/3 309/4/3
f 312/4/3 310/4/3 311/4/3
f 313/4/3 308/4/3 307/4/3
f 314/4/3 308/4/3 313/4/3
f 317/4/3 316/4/3 315/4/3
f 318/4/3 316/4/3 317/4/3
f 322/4/3 320/4/3 319/4/3
f 322/4/3 321/4/3 320/4/3
f 323/4/3 321/4/3 322/4/3
f 324/4/3 322/4/3 319/4/3
f 325/4/3 322/4/3 324/4/3
f 326/4/4 327/4/4 328/4/4
f 328/4/4 327/4/4 329/4/4
f 330/4/4 331/4/4 332/4/4
f 332/4/4 331/4/4 333/4/4
f 336/4/4 337/4/4 342/4/4
f 338/4/4 339/4/4 343/4/4
f 343/4/4 339/4/4 344/4/4
f 344/4/4 339/4/4 345/4/4
f 334/4/4 335/4/4 347/4/4
f 347/4/4 335/4/4 348/4/4
f 340/4/4 341/4/4 349/4/4
f 349/4/4 341/4/4 350/4/4
f 336/4/4 342/4/4 352/4/4
f 342/3/4 343/3/4 353/3/4
f 352/4/4 342/4/4 353/4/4
f 353/3/4 343/3/4 354/3/4
f 344/4/4 345/4/4 355/4/4
f 345/5/4 346/5/4 356/5/4
f 355/4/4 345/4/4 356/4/4
f 347/4/4 348/4/4 357/4/4
f 356/5/4 346/5/4 357/5/4
f 346/4/4 347/4/4 357/4/4
f 357/4/4 348/4/4 358/4/4
f 357/3/4 358/3/4 359/3/4
f 356/4/4 357/4/4 359/4/4
f 358/4/4 348/4/4 360/4/4
f 359/3/4 358/3/4 360/3/4
f 350/5/4 351/5/4 361/5/4
f 356/4/4 359/4/4 366/4/4
f 359/4/4 360/4/4 366/4/4
f 366/4/4 360/4/4 367/4/4
f 360/4/4 348/4/4 368/4/4
f 367/4/4 360/4/4 368/4/4
f 368/4/4 348/4/4 369/4/4
f 361/5/4 351/5/4 370/5/4
f 363/3/4 364/3/4 371/3/4
f 362/4/4 363/4/4 371/4/4
f 371/3/4 364/3/4 372/3/4
f 365/4/4 366/4/4 373/4/4
f 366/5/4 367/5/4 374/5/4
f 373/4/4 366/4/4 374/4/4
f 367/4/4 368/4/4 375/4/4
f 374/5/4 367/5/4 375/5/4
f 368/3/4 369/3/4 376/3/4
f 375/4/4 368/4/4 376/4/4
f 376/3/4 369/3/4 377/3/4
f 370/5/4 351/5/4 381/5/4
f 381/5/4 351/5/4 382/5/4
f 362/4/4 371/4/4 383/4/4
f 383/4/4 371/4/4 384/4/4
f 372/5/4 373/5/4 385/5/4
f 385/5/4 373/5/4 386/5/4
f 376/4/4 377/4/4 387/4/4
f 378/4/4 379/4/4 388/4/4
f 388/4/4 379/4/4 389/4/4
f 380/5/4 381/5/4 390/5/4
f 390/5/4 381/5/4 391/5/4
f 376/4/4 387/4/4 392/4/4
f 392/4/4 387/4/4 393/4/4
f 394/4/4 395/4/4 399/4/4
f 399/4/4 395/4/4 400/4/4
f 396/4/4 397/4/4 402/4/4
f 402/4/4 397/4/4 403/4/4
f 400/4/4 401/4/4 405/4/4
f 398/4/4 399/4/4 405/4/4
f 399/4/4 400/4/4 405/4/4
f 405/4/4 401/4/4 406/4/4
f 406/4/4 401/4/4 407/4/4
f 403/4/4 404/4/4 409/4/4
f 398/4/4 405/4/4 410/4/4
f 410/4/4 405/4/4 411/4/4
f 406/5/4 407/5/4 413/5/4
f 407/4/4 401/4/4 413/4/4
f 413/4/4 401/4/4 414/4/4
f 408/4/4 409/4/4 415/4/4
f 409/4/4 404/4/4 415/4/4
f 415/4/4 404/4/4 416/4/4
f 411/4/4 412/4/4 418/4/4
f 418/4/4 412/4/4 419/4/4
f 413/5/4 414/5/4 420/5/4
f 406/5/4 413/5/4 420/5/4
f 420/5/4 414/5/4 421/5/4
f 408/4/4 415/4/4 422/4/4
f 422/4/4 415/4/4 423/4/4
f 417/3/4 418/3/4 424/3/4
f 418/4/4 419/4/4 425/4/4
f 424/3/4 418/3/4 425/3/4
f 420/4/4 421/4/4 425/4/4
f 419/4/4 420/4/4 425/4/4
f 425/4/4 421/4/4 426/4/4
f 426/4/4 421/4/4 427/4/4
f 427/4/4 421/4/4 428/4/4
f 424/4/4 425/4/4 429/4/4
f 429/4/4 425/4/4 430/4/4
f 426/4/4 427/4/4 431/4/4
f 431/4/4 427/4/4 432/4/4
f 433/5/4 434/5/4 436/5/4
f 436/5/4 434/5/4 437/5/4
f 435/4/4 436/4/4 438/4/4
f 438/4/4 436/4/4 439/4/4
f 437/5/4 434/5/4 440/5/4
f 440/5/4 434/5/4 441/5/4
f 448/5/5 443/5/5 442/5/5
f 449/4/5 444/4/5 443/4/5
f 449/5/5 443/5/5 448/5/5
f 450/5/5 446/5/5 445/5/5
f 451/4/5 447/4/5 446/4/5
f 451/5/5 446/5/5 450/5/5
f 452/4/5 449/4/5 448/4/5
f 453/4/5 444/4/5 449/4/5
f 453/4/5 449/4/5 452/4/5
f 454/4/5 451/4/5 450/4/5
f 455/4/5 447/4/5 451/4/5
f 455/4/5 451/4/5 454/4/5
f 461/4/5 457/4/5 456/4/5
f 462/4/5 457/4/5 461/4/5
f 463/4/5 459/4/5 458/4/5
f 464/4/5 459/4/5 463/4/5
f 466/5/5 461/5/5 460/5/5
f 467/5/5 461/5/5 466/5/5
f 470/4/5 465/4/5 464/4/5
f 471/4/5 465/4/5 470/4/5
f 472/4/5 467/4/5 466/4/5
f 473/4/5 467/4/5 472/4/5
f 475/4/5 469/4/5 468/4/5
f 476/5/5 471/5/5 470/5/5
f 477/5/5 471/5/5 476/5/5
f 478/4/5 474/4/5 473/4/5
f 479/4/5 474/4/5 478/4/5
f 480/4/5 475/4/5 468/4/5
f 480/4/5 476/4/5 475/4/5
f 481/4/5 476/4/5 480/4/5
f 485/5/5 483/5/5 482/5/5
f 486/5/5 483/5/5 485/5/5
f 487/4/5 485/4/5 484/4/5
f 487/4/5 486/4/5 485/4/5
f 488/4/5 486/4/5 487/4/5
f 489/4/5 487/4/5 484/4/5
f 490/4/5 487/4/5 489/4/5
f 491/4/5 487/4/5 490/4/5
f 496/4/5 493/4/5 492/4/5
f 497/4/5 493/4/5 496/4/5
f 498/4/5 495/4/5 494/4/5
f 499/4/5 495/4/5 498/4/5
f 504/4/5 501/4/5 500/4/5
f 505/5/5 502/5/5 501/5/5
f 505/4/5 501/4/5 504/4/5
f 506/5/5 502/5/5 505/5/5
f 507/4/5 503/4/5 502/4/5
f 507/5/5 502/5/5 506/5/5
f 508/4/5 503/4/5 507/4/5
f 509/4/5 503/4/5 508/4/5
f 514/4/5 511/4/5 510/4/5
f 515/4/5 511/4/5 514/4/5
f 516/3/5 512/3/5 511/3/5
f 516/4/5 511/4/5 515/4/5
f 517/4/5 513/4/5 512/4/5
f 517/3/5 512/3/5 516/3/5
f 518/4/5 513/4/5 517/4/5
f 519/4/5 516/4/5 515/4/5
f 520/4/5 516/4/5 519/4/5
f 525/4/5 522/4/5 521/4/5
f 526/4/5 524/4/5 523/4/5
f 527/4/5 524/4/5 526/4/5
f 528/4/5 525/4/5 521/4/5
f 529/4/5 525/4/5 528/4/5
f 532/5/5 531/5/5 530/5/5
f 533/5/5 531/5/5 532/5/5
f 538/4/5 535/4/5 534/4/5
f 539/4/5 535/4/5 538/4/5
f 540/5/5 537/5/5 536/5/5
f 541/5/5 537/5/5 540/5/5
f 544/5/5 543/5/5 542/5/5
f 545/5/5 543/5/5 544/5/5
f 546/5/6 547/5/6 552/5/6
f 547/4/6 548/4/6 553/4/6
f 552/5/6 547/5/6 553/5/6
f 553/4/6 548/4/6 554/4/6
f 549/5/6 550/5/6 555/5/6
f 550/4/6 551/4/6 556/4/6
f 555/5/6 550/5/6 556/5/6
f 552/4/6 553/4/6 557/4/6
f 557/4/6 553/4/6 558/4/6
f 556/4/6 551/4/6 559/4/6
f 559/4/6 551/4/6 560/4/6
f 561/4/6 562/4/6 566/4/6
f 566/4/6 562/4/6 567/4/6
f 563/4/6 564/4/6 568/4/6
f 568/4/6 564/4/6 569/4/6
f 565/5/6 566/5/6 571/5/6
f 571/5/6 566/5/6 572/5/6
f 569/4/6 570/4/6 573/4/6
f 573/4/6 570/4/6 574/4/6
f 573/5/6 574/5/6 578/5/6
f 578/5/6 574/5/6 579/5/6
f 575/4/6 576/4/6 580/4/6
f 580/4/6 576/4/6 581/4/6
f 577/4/6 578/4/6 582/4/6
f 582/4/6 578/4/6 583/4/6
f 584/5/6 585/5/6 586/5/6
f 586/5/6 585/5/6 587/5/6
f 588/4/6 589/4/6 590/4/6
f 590/4/6 589/4/6 591/4/6
f 592/4/6 593/4/6 594/4/6
f 594/4/6 593/4/6 595/4/6
f 596/4/6 597/4/6 600/4/6
f 600/4/6 597/4/6 601/4/6
f 598/4/6 599/4/6 602/4/6
f 602/4/6 599/4/6 603/4/6
f 604/4/6 605/4/6 608/4/6
f 608/4/6 605/4/6 609/4/6
f 606/4/6 607/4/6 610/4/6
f 610/4/6 607/4/6 611/4/6
f 612/5/6 613/5/6 614/5/6
f 614/5/6 613/5/6 615/5/6
f 616/5/6 617/5/6 618/5/6
f 618/5/6 617/5/6 619/5/6
f 620/5/6 621/5/6 624/5/6
f 624/5/6 621/5/6 625/5/6
f 622/5/6 623/5/6 626/5/6
f 626/5/6 623/5/6 627/5/6
f 628/4/6 629/4/6 632/4/6
f 632/4/6 629/4/6 633/4/6
f 630/4/6 631/4/6 634/4/6
f 634/4/6 631/4/6 635/4/6
f 636/4/6 637/4/6 640/4/6
f 637/5/6 638/5/6 641/5/6
f 640/4/6 637/4/6 641/4/6
f 641/5/6 638/5/6 642/5/6
f 643/4/6 644/4/6 645/4/6
f 645/4/6 644/4/6 646/4/6
f 639/4/6 640/4/6 647/4/6
f 647/4/6 640/4/6 648/4/6
f 645/5/6 646/5/6 651/5/6
f 651/5/6 646/5/6 652/5/6
f 648/4/6 649/4/6 653/4/6
f 649/5/6 650/5/6 654/5/6
f 653/4/6 649/4/6 654/4/6
f 650/4/6 651/4/6 655/4/6
f 654/5/6 650/5/6 655/5/6
f 655/4/6 651/4/6 656/4/6
f 657/5/6 658/5/6 659/5/6
f 659/5/6 658/5/6 660/5/6
